<svg xmlns="http://www.w3.org/2000/svg" width="44.998" height="44.998" viewBox="0 0 44.998 44.998"><defs><style>.a{fill:#333;}</style></defs><path class="a" d="M1415.5,7872a22.5,22.5,0,1,0,22.5,22.5A22.5,22.5,0,0,0,1415.5,7872Zm4.905,13.279h8.421v2.514h-8.421Zm-4.256,13.184c0,6.229-6.483,6.024-6.483,6.024h-10.622v-20.41h10.621c3.228,0,5.776,1.782,5.776,5.434a3.543,3.543,0,0,1-3.115,3.885C1416.433,7893.4,1416.15,7898.464,1416.15,7898.464Zm8.767,3.219c3.393,0,3.273-2.2,3.273-2.2h3.592c0,5.828-6.984,5.428-6.984,5.428-8.381,0-7.842-7.8-7.842-7.8s-.007-7.841,7.841-7.841c8.262,0,7.1,8.859,7.1,8.859h-10.576A3.32,3.32,0,0,0,1424.917,7901.683Z" transform="translate(-1393.001 -7872.001)"/></svg>